<?xml version="1.0" encoding="UTF-8"?>
<svg version="1.1" xmlns="http://www.w3.org/2000/svg" width="512" height="512">
<path d="M0 0 C0.7645903 -0.00979385 1.5291806 -0.01958771 2.31694031 -0.02967834 C50.53926087 -0.51950654 93.7112011 12.09020614 132.09765625 41.73828125 C132.62367432 42.14022705 133.14969238 42.54217285 133.69165039 42.95629883 C136.3593236 45.06565055 138.69354587 47.13256654 140.93066406 49.71411133 C147.65625752 57.31304247 152.98216911 58.91294276 162.91015625 59.92578125 C165.58821192 60.27370037 168.2607598 60.6571937 170.93359375 61.04296875 C171.59943481 61.13594742 172.26527588 61.22892609 172.95129395 61.32472229 C189.68629418 63.73946895 205.71302761 69.72208195 220.78515625 77.23828125 C221.45369629 77.56973145 222.12223633 77.90118164 222.81103516 78.24267578 C260.31814414 97.04675418 289.48305476 127.22542514 308.78515625 164.23828125 C309.09936523 164.83930664 309.41357422 165.44033203 309.73730469 166.05957031 C318.11447501 182.35794972 323.62786181 200.21237484 326.78515625 218.23828125 C326.96175781 219.22417236 327.13835937 220.21006348 327.3203125 221.22583008 C328.93519724 231.18260382 329.18432954 240.98235998 329.16015625 251.05078125 C329.15934052 252.33295029 329.15934052 252.33295029 329.1585083 253.64102173 C329.09506072 275.41293354 325.89163224 295.63093461 318.78515625 316.23828125 C318.38425781 317.41390625 317.98335938 318.58953125 317.5703125 319.80078125 C314.59148913 327.98502324 310.73952711 335.70752994 306.72558594 343.42236328 C305.909764 344.99767055 305.11504763 346.5838737 304.32421875 348.171875 C300.04249593 356.50019713 294.4637427 363.82889988 288.78515625 371.23828125 C288.08777344 372.16382813 287.39039063 373.089375 286.671875 374.04296875 C269.63128609 395.81521633 269.63128609 395.81521633 260.78515625 400.23828125 C260.78151062 401.38198181 260.77786499 402.52568237 260.77410889 403.70404053 C260.7371895 414.47518332 260.67945033 425.2460394 260.60125351 436.01696396 C260.56172134 441.55461575 260.529561 447.09210716 260.51416016 452.62988281 C260.49903143 457.97280999 260.46465318 463.3152964 260.41684723 468.65802765 C260.40199434 470.6977582 260.39411301 472.73755167 260.3932724 474.77733612 C260.39091275 477.63165952 260.36391411 480.48475484 260.33105469 483.33886719 C260.33608505 484.18475403 260.34111542 485.03064087 260.34629822 485.90216064 C260.27906456 489.66958157 260.22325754 491.6264965 257.9854126 494.75152588 C255.3166084 496.55488801 253.11330664 496.98902335 249.8992157 496.80049133 C242.02629758 494.70677824 235.61441377 484.90585967 230.26025963 479.11611366 C227.05995084 475.67740677 223.80390276 472.29122923 220.55496502 468.89854145 C217.71910855 465.93121143 214.90808501 462.94630483 212.14135742 459.91430664 C201.20535204 446.78623035 201.20535204 446.78623035 186.99993896 438.56402588 C181.78120226 438.54269441 177.40849514 440.17064137 172.73867798 442.3765564 C170.03746538 443.56809781 167.40829886 443.94803595 164.48828125 444.28515625 C163.5849707 444.40802002 162.68166016 444.53088379 161.75097656 444.6574707 C126.56920468 448.94291667 91.57473179 445.14141512 58.78515625 431.23828125 C58.07101563 430.93696289 57.356875 430.63564453 56.62109375 430.32519531 C33.6083868 420.44019165 13.46877708 405.92190208 -4.21484375 388.23828125 C-6.69347098 387.6356723 -6.69347098 387.6356723 -9.60546875 387.2734375 C-10.70890625 387.11294922 -11.81234375 386.95246094 -12.94921875 386.78710938 C-14.109375 386.62662109 -15.26953125 386.46613281 -16.46484375 386.30078125 C-18.72067357 385.98355518 -20.97588717 385.66191675 -23.23046875 385.3359375 C-24.31690674 385.19243362 -25.40334473 385.04892975 -26.52270508 384.90107727 C-30.21484375 384.23828125 -30.21484375 384.23828125 -33.4831543 383.05570984 C-37.2745113 381.76456189 -40.19805744 381.12954764 -44.21484375 381.23828125 C-49.65915898 384.29985555 -53.55039761 388.60881156 -57.76171875 393.16015625 C-58.98860721 394.42133387 -60.21941226 395.67871213 -61.45391846 396.93243408 C-64.68132958 400.23015279 -67.85486547 403.57518145 -71.01904297 406.93347168 C-74.25485639 410.35056373 -77.53673275 413.72272901 -80.81640625 417.09765625 C-84.49593586 420.88743658 -88.17018339 424.68125888 -91.80926514 428.50994873 C-92.36108459 429.08955353 -92.91290405 429.66915833 -93.48144531 430.2663269 C-94.51255273 431.35088021 -95.5414348 432.43755516 -96.56768799 433.52670288 C-100.49965267 437.65966451 -102.39733148 438.34720168 -108.14453125 438.6640625 C-111.29735122 438.01565236 -112.28321989 436.80793613 -114.21484375 434.23828125 C-114.56631817 431.19335297 -114.67780971 428.51977137 -114.60205078 425.48168945 C-114.59632553 424.59823349 -114.59060028 423.71477753 -114.58470154 422.80455017 C-114.5705997 420.88709486 -114.54778858 418.96968835 -114.51730728 417.05242348 C-114.47225941 414.01228065 -114.45707813 410.973363 -114.45089722 407.9329071 C-114.42999456 399.28941978 -114.37161951 390.64686899 -114.25292969 382.00415039 C-114.18241124 376.71475581 -114.16085892 371.42699677 -114.1696434 366.13716698 C-114.16335949 364.1265041 -114.13858904 362.11580724 -114.09460831 360.10561562 C-113.52208628 349.03236012 -113.52208628 349.03236012 -117.40159607 339.05050659 C-119.89841582 336.78459534 -122.35361886 335.00692702 -125.21484375 333.23828125 C-126.2915454 332.30133658 -127.34505754 331.33617858 -128.359375 330.33203125 C-129.23980469 329.47609375 -130.12023437 328.62015625 -131.02734375 327.73828125 C-162.4460084 296.3196166 -182.99105427 249.21027405 -183.453125 204.671875 C-183.46291885 203.88376938 -183.47271271 203.09566376 -183.48280334 202.28367615 C-183.65735461 184.59186812 -183.42031835 167.53065511 -179.21484375 150.23828125 C-178.89338379 148.8917749 -178.89338379 148.8917749 -178.56542969 147.51806641 C-166.07381404 96.70610144 -133.30332979 53.60474602 -88.77734375 26.48828125 C-62.21357861 10.8214663 -31.03785603 0.33102061 0 0 Z M-26.21484375 20.23828125 C-27.05998535 20.44759277 -27.90512695 20.6569043 -28.77587891 20.87255859 C-40.26496844 23.79920065 -51.38484855 27.38832688 -62.21484375 32.23828125 C-62.84132813 32.51865234 -63.4678125 32.79902344 -64.11328125 33.08789062 C-81.19509315 40.85702796 -96.50395614 51.46388537 -110.21484375 64.23828125 C-110.77010742 64.75503418 -111.32537109 65.27178711 -111.89746094 65.80419922 C-139.2335842 91.54769617 -157.08682924 125.47660944 -164.21484375 162.23828125 C-164.40248291 163.19250977 -164.59012207 164.14673828 -164.78344727 165.12988281 C-166.44371274 174.54913706 -166.57235345 183.83085239 -166.52734375 193.36328125 C-166.5251886 194.18320557 -166.52303345 195.00312988 -166.52081299 195.84790039 C-166.47007077 207.86999307 -166.13672344 219.51925973 -163.21484375 231.23828125 C-162.91682861 232.47191406 -162.91682861 232.47191406 -162.61279297 233.73046875 C-153.36184871 271.0945822 -133.3717733 304.06251637 -104.30859375 329.3984375 C-99.53930298 333.58936278 -99.53930298 333.58936278 -98.21484375 336.23828125 C-98.09372277 338.5148977 -98.0373223 340.79504042 -98.00952148 343.07470703 C-97.99962189 343.77725616 -97.98972229 344.4798053 -97.97952271 345.2036438 C-97.94788695 347.53025928 -97.92314216 349.85689519 -97.8984375 352.18359375 C-97.87786976 353.79499854 -97.85687333 355.40639791 -97.83546448 357.01779175 C-97.78022521 361.26250831 -97.73082414 365.50727372 -97.68261719 369.7520752 C-97.63241569 374.08215693 -97.57672258 378.4121676 -97.52148438 382.7421875 C-97.41388012 391.24082536 -97.31244021 399.7395226 -97.21484375 408.23828125 C-91.68943583 403.63955119 -86.59682811 398.73767423 -81.54296875 393.62890625 C-80.73873474 392.82088562 -79.93450073 392.01286499 -79.105896 391.18035889 C-76.55643056 388.61875284 -74.01024462 386.05392579 -71.46484375 383.48828125 C-68.09791426 380.09479569 -64.72771563 376.70460679 -61.35546875 373.31640625 C-60.58358215 372.53622131 -59.81169556 371.75603638 -59.01641846 370.95220947 C-58.29847107 370.23095886 -57.58052368 369.50970825 -56.84082031 368.76660156 C-56.21129456 368.13183899 -55.5817688 367.49707642 -54.9331665 366.84307861 C-51.80876023 363.92509424 -49.67077283 362.86179829 -45.40087891 362.98925781 C-40.63797621 363.53182658 -36.03072576 364.90404854 -31.40234375 366.11328125 C14.95452411 377.64457312 62.77720013 369.48139399 103.78515625 345.23828125 C108.66193096 342.16897458 113.24228909 338.778102 117.78515625 335.23828125 C118.67589844 334.56925781 119.56664062 333.90023438 120.484375 333.2109375 C152.18467257 308.52356077 174.16652281 273.40460291 183.59765625 234.48828125 C183.88999146 233.28522339 183.88999146 233.28522339 184.18823242 232.05786133 C187.05582681 219.484174 188.15382412 206.92869004 188.09765625 194.05078125 C188.09583344 193.38018677 188.09401062 192.70959229 188.09213257 192.01867676 C188.03991278 180.53304554 187.23353359 169.46804346 184.78515625 158.23828125 C184.61886719 157.46162109 184.45257813 156.68496094 184.28125 155.88476562 C177.13276844 123.61069519 161.05159738 95.4046385 138.78515625 71.23828125 C137.94210937 70.32304688 137.0990625 69.4078125 136.23046875 68.46484375 C108.12745803 39.2561408 65.56462454 18.75344566 24.8737793 17.07714844 C23.5148788 17.05766354 22.15588721 17.04387644 20.796875 17.03515625 C20.06040741 17.02809662 19.32393982 17.02103699 18.56515503 17.01376343 C-4.00057989 16.73238014 -4.00057989 16.73238014 -26.21484375 20.23828125 Z " fill="#0E78F9" transform="translate(183.21484375,7.76171875)"/>
<path d="M0 0 C0.7645903 -0.00979385 1.5291806 -0.01958771 2.31694031 -0.02967834 C50.53926087 -0.51950654 93.7112011 12.09020614 132.09765625 41.73828125 C132.62367432 42.14022705 133.14969238 42.54217285 133.69165039 42.95629883 C136.3593236 45.06565055 138.69354587 47.13256654 140.93066406 49.71411133 C147.65625752 57.31304247 152.98216911 58.91294276 162.91015625 59.92578125 C165.58821192 60.27370037 168.2607598 60.6571937 170.93359375 61.04296875 C171.59943481 61.13594742 172.26527588 61.22892609 172.95129395 61.32472229 C189.68629418 63.73946895 205.71302761 69.72208195 220.78515625 77.23828125 C221.45369629 77.56973145 222.12223633 77.90118164 222.81103516 78.24267578 C260.31814414 97.04675418 289.48305476 127.22542514 308.78515625 164.23828125 C309.09936523 164.83930664 309.41357422 165.44033203 309.73730469 166.05957031 C318.11447501 182.35794972 323.62786181 200.21237484 326.78515625 218.23828125 C326.96175781 219.22417236 327.13835937 220.21006348 327.3203125 221.22583008 C328.93519724 231.18260382 329.18432954 240.98235998 329.16015625 251.05078125 C329.15934052 252.33295029 329.15934052 252.33295029 329.1585083 253.64102173 C329.09506072 275.41293354 325.89163224 295.63093461 318.78515625 316.23828125 C318.38425781 317.41390625 317.98335938 318.58953125 317.5703125 319.80078125 C314.59148913 327.98502324 310.73952711 335.70752994 306.72558594 343.42236328 C305.909764 344.99767055 305.11504763 346.5838737 304.32421875 348.171875 C300.04249593 356.50019713 294.4637427 363.82889988 288.78515625 371.23828125 C288.08777344 372.16382813 287.39039063 373.089375 286.671875 374.04296875 C269.63128609 395.81521633 269.63128609 395.81521633 260.78515625 400.23828125 C260.78151062 401.38198181 260.77786499 402.52568237 260.77410889 403.70404053 C260.7371895 414.47518332 260.67945033 425.2460394 260.60125351 436.01696396 C260.56172134 441.55461575 260.529561 447.09210716 260.51416016 452.62988281 C260.49903143 457.97280999 260.46465318 463.3152964 260.41684723 468.65802765 C260.40199434 470.6977582 260.39411301 472.73755167 260.3932724 474.77733612 C260.39091275 477.63165952 260.36391411 480.48475484 260.33105469 483.33886719 C260.33608505 484.18475403 260.34111542 485.03064087 260.34629822 485.90216064 C260.27906456 489.66958157 260.22325754 491.6264965 257.9854126 494.75152588 C255.3166084 496.55488801 253.11330664 496.98902335 249.8992157 496.80049133 C242.02629758 494.70677824 235.61441377 484.90585967 230.26025963 479.11611366 C227.05995084 475.67740677 223.80390276 472.29122923 220.55496502 468.89854145 C217.71910855 465.93121143 214.90808501 462.94630483 212.14135742 459.91430664 C201.20535204 446.78623035 201.20535204 446.78623035 186.99993896 438.56402588 C181.78120226 438.54269441 177.40849514 440.17064137 172.73867798 442.3765564 C170.03746538 443.56809781 167.40829886 443.94803595 164.48828125 444.28515625 C163.5849707 444.40802002 162.68166016 444.53088379 161.75097656 444.6574707 C126.56920468 448.94291667 91.57473179 445.14141512 58.78515625 431.23828125 C58.07101563 430.93696289 57.356875 430.63564453 56.62109375 430.32519531 C33.6083868 420.44019165 13.46877708 405.92190208 -4.21484375 388.23828125 C-6.69347098 387.6356723 -6.69347098 387.6356723 -9.60546875 387.2734375 C-10.70890625 387.11294922 -11.81234375 386.95246094 -12.94921875 386.78710938 C-14.109375 386.62662109 -15.26953125 386.46613281 -16.46484375 386.30078125 C-18.72067357 385.98355518 -20.97588717 385.66191675 -23.23046875 385.3359375 C-24.31690674 385.19243362 -25.40334473 385.04892975 -26.52270508 384.90107727 C-30.21484375 384.23828125 -30.21484375 384.23828125 -33.4831543 383.05570984 C-37.2745113 381.76456189 -40.19805744 381.12954764 -44.21484375 381.23828125 C-49.65915898 384.29985555 -53.55039761 388.60881156 -57.76171875 393.16015625 C-58.98860721 394.42133387 -60.21941226 395.67871213 -61.45391846 396.93243408 C-64.68132958 400.23015279 -67.85486547 403.57518145 -71.01904297 406.93347168 C-74.25485639 410.35056373 -77.53673275 413.72272901 -80.81640625 417.09765625 C-84.49593586 420.88743658 -88.17018339 424.68125888 -91.80926514 428.50994873 C-92.36108459 429.08955353 -92.91290405 429.66915833 -93.48144531 430.2663269 C-94.51255273 431.35088021 -95.5414348 432.43755516 -96.56768799 433.52670288 C-100.49965267 437.65966451 -102.39733148 438.34720168 -108.14453125 438.6640625 C-111.29735122 438.01565236 -112.28321989 436.80793613 -114.21484375 434.23828125 C-114.56631817 431.19335297 -114.67780971 428.51977137 -114.60205078 425.48168945 C-114.59632553 424.59823349 -114.59060028 423.71477753 -114.58470154 422.80455017 C-114.5705997 420.88709486 -114.54778858 418.96968835 -114.51730728 417.05242348 C-114.47225941 414.01228065 -114.45707813 410.973363 -114.45089722 407.9329071 C-114.42999456 399.28941978 -114.37161951 390.64686899 -114.25292969 382.00415039 C-114.18241124 376.71475581 -114.16085892 371.42699677 -114.1696434 366.13716698 C-114.16335949 364.1265041 -114.13858904 362.11580724 -114.09460831 360.10561562 C-113.52208628 349.03236012 -113.52208628 349.03236012 -117.40159607 339.05050659 C-119.89841582 336.78459534 -122.35361886 335.00692702 -125.21484375 333.23828125 C-126.2915454 332.30133658 -127.34505754 331.33617858 -128.359375 330.33203125 C-129.23980469 329.47609375 -130.12023437 328.62015625 -131.02734375 327.73828125 C-162.4460084 296.3196166 -182.99105427 249.21027405 -183.453125 204.671875 C-183.46291885 203.88376938 -183.47271271 203.09566376 -183.48280334 202.28367615 C-183.65735461 184.59186812 -183.42031835 167.53065511 -179.21484375 150.23828125 C-178.89338379 148.8917749 -178.89338379 148.8917749 -178.56542969 147.51806641 C-166.07381404 96.70610144 -133.30332979 53.60474602 -88.77734375 26.48828125 C-62.21357861 10.8214663 -31.03785603 0.33102061 0 0 Z M-26.21484375 20.23828125 C-27.05998535 20.44759277 -27.90512695 20.6569043 -28.77587891 20.87255859 C-40.26496844 23.79920065 -51.38484855 27.38832688 -62.21484375 32.23828125 C-62.84132813 32.51865234 -63.4678125 32.79902344 -64.11328125 33.08789062 C-81.19509315 40.85702796 -96.50395614 51.46388537 -110.21484375 64.23828125 C-110.77010742 64.75503418 -111.32537109 65.27178711 -111.89746094 65.80419922 C-139.2335842 91.54769617 -157.08682924 125.47660944 -164.21484375 162.23828125 C-164.40248291 163.19250977 -164.59012207 164.14673828 -164.78344727 165.12988281 C-166.44371274 174.54913706 -166.57235345 183.83085239 -166.52734375 193.36328125 C-166.5251886 194.18320557 -166.52303345 195.00312988 -166.52081299 195.84790039 C-166.47007077 207.86999307 -166.13672344 219.51925973 -163.21484375 231.23828125 C-162.91682861 232.47191406 -162.91682861 232.47191406 -162.61279297 233.73046875 C-153.36184871 271.0945822 -133.3717733 304.06251637 -104.30859375 329.3984375 C-99.53930298 333.58936278 -99.53930298 333.58936278 -98.21484375 336.23828125 C-98.09372277 338.5148977 -98.0373223 340.79504042 -98.00952148 343.07470703 C-97.99962189 343.77725616 -97.98972229 344.4798053 -97.97952271 345.2036438 C-97.94788695 347.53025928 -97.92314216 349.85689519 -97.8984375 352.18359375 C-97.87786976 353.79499854 -97.85687333 355.40639791 -97.83546448 357.01779175 C-97.78022521 361.26250831 -97.73082414 365.50727372 -97.68261719 369.7520752 C-97.63241569 374.08215693 -97.57672258 378.4121676 -97.52148438 382.7421875 C-97.41388012 391.24082536 -97.31244021 399.7395226 -97.21484375 408.23828125 C-91.68943583 403.63955119 -86.59682811 398.73767423 -81.54296875 393.62890625 C-80.73873474 392.82088562 -79.93450073 392.01286499 -79.105896 391.18035889 C-76.55643056 388.61875284 -74.01024462 386.05392579 -71.46484375 383.48828125 C-68.09791426 380.09479569 -64.72771563 376.70460679 -61.35546875 373.31640625 C-60.58358215 372.53622131 -59.81169556 371.75603638 -59.01641846 370.95220947 C-58.29847107 370.23095886 -57.58052368 369.50970825 -56.84082031 368.76660156 C-56.21129456 368.13183899 -55.5817688 367.49707642 -54.9331665 366.84307861 C-51.80876023 363.92509424 -49.67077283 362.86179829 -45.40087891 362.98925781 C-40.63797621 363.53182658 -36.03072576 364.90404854 -31.40234375 366.11328125 C14.95452411 377.64457312 62.77720013 369.48139399 103.78515625 345.23828125 C108.66193096 342.16897458 113.24228909 338.778102 117.78515625 335.23828125 C118.67589844 334.56925781 119.56664062 333.90023438 120.484375 333.2109375 C152.18467257 308.52356077 174.16652281 273.40460291 183.59765625 234.48828125 C183.88999146 233.28522339 183.88999146 233.28522339 184.18823242 232.05786133 C187.05582681 219.484174 188.15382412 206.92869004 188.09765625 194.05078125 C188.09583344 193.38018677 188.09401062 192.70959229 188.09213257 192.01867676 C188.03991278 180.53304554 187.23353359 169.46804346 184.78515625 158.23828125 C184.61886719 157.46162109 184.45257813 156.68496094 184.28125 155.88476562 C177.13276844 123.61069519 161.05159738 95.4046385 138.78515625 71.23828125 C137.94210937 70.32304688 137.0990625 69.4078125 136.23046875 68.46484375 C108.12745803 39.2561408 65.56462454 18.75344566 24.8737793 17.07714844 C23.5148788 17.05766354 22.15588721 17.04387644 20.796875 17.03515625 C20.06040741 17.02809662 19.32393982 17.02103699 18.56515503 17.01376343 C-4.00057989 16.73238014 -4.00057989 16.73238014 -26.21484375 20.23828125 Z M165.78515625 77.23828125 C168.3684255 81.85209322 171.09762804 86.27477226 174.03515625 90.67578125 C200.69851832 131.65988687 209.64180067 182.35384503 200.78515625 230.23828125 C192.62705866 268.73039304 174.85452638 301.81338879 147.78515625 330.23828125 C147.13160156 330.9446875 146.47804688 331.65109375 145.8046875 332.37890625 C135.64407455 343.03780086 123.16864378 351.39505923 110.78515625 359.23828125 C109.77839844 359.87636719 108.77164063 360.51445312 107.734375 361.171875 C81.26299906 377.25529556 51.18671481 383.90597252 20.78515625 387.23828125 C24.3572322 392.56629341 29.26471121 395.59278422 34.53515625 399.05078125 C35.47311035 399.66953125 36.41106445 400.28828125 37.37744141 400.92578125 C45.23558124 406.02989386 53.21206187 410.46611972 61.78515625 414.23828125 C62.70772217 414.64699463 62.70772217 414.64699463 63.64892578 415.06396484 C78.47140379 421.53103497 93.8281411 425.73389287 109.78515625 428.23828125 C110.9453125 428.42390625 112.10546875 428.60953125 113.30078125 428.80078125 C119.82351286 429.57900355 126.4127388 429.48267878 132.97265625 429.48828125 C133.68279877 429.48895599 134.39294128 429.48963074 135.12460327 429.49032593 C151.83749628 429.46518881 167.54463936 427.62904553 183.57348633 422.77661133 C187.98486401 421.48241858 191.31858476 420.61407344 195.78515625 422.23828125 C202.04606989 427.03460901 207.52672102 432.86053804 213.0625 438.453125 C213.9144545 439.30886612 214.766409 440.16460724 215.6441803 441.04627991 C218.33945918 443.75368693 221.03144751 446.46432879 223.72265625 449.17578125 C227.29144674 452.77105159 230.86346009 456.36307395 234.4375 459.953125 C235.26031967 460.78424301 236.08313934 461.61536102 236.93089294 462.47166443 C238.06326134 463.60898766 238.06326134 463.60898766 239.21850586 464.76928711 C239.88498642 465.44100449 240.55146698 466.11272186 241.23814392 466.80479431 C242.55589769 468.35156136 242.55589769 468.35156136 243.78515625 468.23828125 C243.78658127 467.30977859 243.78800629 466.38127594 243.78947449 465.42463684 C243.80731172 456.66983701 243.84894662 447.91554235 243.91724682 439.16098499 C243.95152259 434.6602342 243.97662767 430.15982304 243.98071289 425.65893555 C243.98499465 421.31439457 244.01344643 416.97061983 244.05858803 412.62631798 C244.07156709 410.96979932 244.07586923 409.31318898 244.07131004 407.65662575 C244.06640654 405.3338026 244.09248016 403.01322118 244.12573242 400.69067383 C244.11710678 400.00734482 244.10848114 399.32401581 244.09959412 398.61997986 C244.19073914 394.81656662 244.69697177 393.34190567 247.19746399 390.40361023 C248.05140244 389.68905167 248.90534088 388.9744931 249.78515625 388.23828125 C250.46578125 387.54605469 251.14640625 386.85382813 251.84765625 386.140625 C257.27600028 380.63567127 257.27600028 380.63567127 260.34765625 378.23828125 C263.95668088 375.27703027 266.81286662 371.82746118 269.78515625 368.23828125 C270.61273438 367.24828125 271.4403125 366.25828125 272.29296875 365.23828125 C303.26154771 327.47431765 316.75662438 280.01960292 312.09765625 231.61328125 C307.09636375 187.14169441 283.59607329 143.10436059 248.703125 114.87890625 C226.90947284 97.70583381 194.57181046 77.23828125 165.78515625 77.23828125 Z " fill="#57A4FF" transform="translate(183.21484375,7.76171875)"/>
<path d="M0 0 C1.59597015 -0.00856522 1.59597015 -0.00856522 3.22418213 -0.01730347 C4.3863475 -0.01842133 5.54851288 -0.01953918 6.74589539 -0.02069092 C8.58796066 -0.02813828 8.58796066 -0.02813828 10.46723938 -0.03573608 C13.83308355 -0.04783367 17.19886569 -0.05529994 20.56472421 -0.05974674 C22.66939513 -0.06268163 24.77406066 -0.06678721 26.87872887 -0.07125092 C33.4691011 -0.08491895 40.05946095 -0.09458903 46.64984637 -0.09845281 C54.24761267 -0.10293217 61.84519893 -0.12047717 69.44291049 -0.1494534 C75.32246113 -0.17109562 81.20196122 -0.18115844 87.08155125 -0.18249393 C90.5900857 -0.18354013 94.09845076 -0.18940837 97.60694313 -0.20731354 C101.52311084 -0.22691115 105.43905488 -0.22249511 109.35527039 -0.21600342 C110.51136307 -0.2252182 111.66745575 -0.23443298 112.85858154 -0.243927 C120.50118189 -0.20423916 125.61726402 0.43001932 131.55717468 5.57794189 C134.70017698 9.25974459 135.94482029 12.0754254 136.36967468 16.89044189 C136.44444031 17.68966064 136.51920593 18.48887939 136.59623718 19.31231689 C136.64522156 19.91559814 136.69420593 20.51887939 136.74467468 21.14044189 C137.470578 20.81245605 138.19648132 20.48447021 138.94438171 20.14654541 C142.24959069 18.65806674 145.55953512 17.18042122 148.86967468 15.70294189 C150.01178406 15.18667236 151.15389343 14.67040283 152.33061218 14.13848877 C153.43920593 13.64542236 154.54779968 13.15235596 155.68998718 12.64434814 C156.70592957 12.18874512 157.72187195 11.73314209 158.76860046 11.26373291 C161.8092618 10.1160641 164.51092421 9.44765102 167.74467468 9.14044189 C171.27373535 10.74456038 172.57240376 11.88203551 174.74467468 15.14044189 C175.0047369 17.18229485 175.0047369 17.18229485 175.01882935 19.56765747 C175.02880447 20.4732843 175.0387796 21.37891113 175.04905701 22.3119812 C175.04972168 23.30321991 175.05038635 24.29445862 175.05107117 25.31573486 C175.05939468 26.3615271 175.0677182 27.40731934 175.07629395 28.48480225 C175.10044015 31.95078221 175.10917162 35.41657417 175.11576843 38.88262939 C175.12473097 41.28775083 175.13385274 43.69287169 175.14312744 46.09799194 C175.15963238 51.14356849 175.16732035 56.18907856 175.17021179 61.23468018 C175.17559822 67.70367582 175.21328347 74.17204781 175.25895596 80.64086723 C175.28868053 85.60967294 175.29593435 90.57832761 175.29693794 95.54721451 C175.30114907 97.93228132 175.31361886 100.31734822 175.33445549 102.70232773 C175.36127419 106.03747327 175.35657188 109.37116199 175.34403992 112.70635986 C175.36629135 114.18714523 175.36629135 114.18714523 175.38899231 115.69784546 C175.33965159 120.30294554 175.23266031 122.47020253 172.45697021 126.28256226 C169.23122227 128.4921487 167.2110478 128.55743195 163.39360046 127.88702393 C157.92430483 126.3455395 152.82908714 123.95686681 147.68217468 121.57794189 C146.53039734 121.05780518 145.37862 120.53766846 144.19194031 120.00177002 C141.37086203 118.72584665 138.55557702 117.43859089 135.74467468 116.14044189 C135.76425232 116.74589844 135.78382996 117.35135498 135.80400085 117.97515869 C135.82684143 119.17652466 135.82684143 119.17652466 135.85014343 120.40216064 C135.86972107 121.19324219 135.88929871 121.98432373 135.9094696 122.79937744 C135.5550566 127.8341423 132.82671899 131.13757156 129.18217468 134.51544189 C125.51929582 136.95736114 122.75684578 137.26835861 118.45774841 137.28761292 C116.81335533 137.29834587 116.81335533 137.29834587 115.13574219 137.30929565 C113.33099678 137.31332901 113.33099678 137.31332901 111.48979187 137.31744385 C110.2228801 137.32401505 108.95596832 137.33058624 107.65066528 137.33735657 C103.44763959 137.35837915 99.24461362 137.36875775 95.04154968 137.37872314 C93.5932895 137.38277147 92.14502951 137.38688842 90.69676971 137.39107323 C83.8917551 137.41012151 77.0867513 137.42435289 70.28171515 137.4326852 C62.43315761 137.44245451 54.58488232 137.46876728 46.73642421 137.50918609 C40.66581383 137.53937347 34.59528423 137.55415657 28.52460027 137.55746621 C24.90085779 137.55981387 21.27741698 137.56873663 17.65375519 137.59392738 C13.60803544 137.62159798 9.56294405 137.61736902 5.51713562 137.6104126 C3.7245356 137.62962769 3.7245356 137.62962769 1.89572144 137.64923096 C-4.72277726 137.60773576 -8.8999175 137.14415313 -14.25532532 133.14044189 C-18.02945601 129.06835351 -19.37386433 126.04047666 -19.40249634 120.53686523 C-19.40965164 119.59205795 -19.41680695 118.64725067 -19.42417908 117.67381287 C-19.42686798 116.63896255 -19.42955688 115.60411224 -19.43232727 114.53790283 C-19.43889847 113.44655533 -19.44546967 112.35520782 -19.45223999 111.23078918 C-19.47198208 107.61213108 -19.48363752 103.9935145 -19.49360657 100.37481689 C-19.49768209 99.13962563 -19.50175762 97.90443436 -19.50595665 96.63181305 C-19.52466934 90.76866054 -19.53923429 84.90552436 -19.54756862 79.04234767 C-19.55733525 72.2838593 -19.58364166 65.52569895 -19.62406951 58.76732612 C-19.65792097 52.9063218 -19.66971796 47.04542709 -19.67377281 41.1843338 C-19.67864526 38.69486517 -19.69027786 36.2054002 -19.70881081 33.71599579 C-19.73314632 30.23058444 -19.73224692 26.74602931 -19.72529602 23.26055908 C-19.73810608 22.23380569 -19.75091614 21.20705231 -19.76411438 20.14918518 C-19.71894673 13.93010123 -18.95283225 10.20053771 -15.25532532 5.14044189 C-10.15467012 1.10242319 -6.37458734 0.02052718 0 0 Z M54.74467468 63.14044189 C54.74467468 66.77044189 54.74467468 70.40044189 54.74467468 74.14044189 C59.1755794 72.93201334 61.72580224 71.62375625 64.74467468 68.14044189 C61.44467468 66.49044189 58.14467468 64.84044189 54.74467468 63.14044189 Z " fill="#9AC8FF" transform="translate(116.25532531738281,132.85955810546875)"/>
<path d="M0 0 C1.59597015 -0.00856522 1.59597015 -0.00856522 3.22418213 -0.01730347 C4.3863475 -0.01842133 5.54851288 -0.01953918 6.74589539 -0.02069092 C8.58796066 -0.02813828 8.58796066 -0.02813828 10.46723938 -0.03573608 C13.83308355 -0.04783367 17.19886569 -0.05529994 20.56472421 -0.05974674 C22.66939513 -0.06268163 24.77406066 -0.06678721 26.87872887 -0.07125092 C33.4691011 -0.08491895 40.05946095 -0.09458903 46.64984637 -0.09845281 C54.24761267 -0.10293217 61.84519893 -0.12047717 69.44291049 -0.1494534 C75.32246113 -0.17109562 81.20196122 -0.18115844 87.08155125 -0.18249393 C90.5900857 -0.18354013 94.09845076 -0.18940837 97.60694313 -0.20731354 C101.52311084 -0.22691115 105.43905488 -0.22249511 109.35527039 -0.21600342 C110.51136307 -0.2252182 111.66745575 -0.23443298 112.85858154 -0.243927 C120.50118189 -0.20423916 125.61726402 0.43001932 131.55717468 5.57794189 C134.70017698 9.25974459 135.94482029 12.0754254 136.36967468 16.89044189 C136.44444031 17.68966064 136.51920593 18.48887939 136.59623718 19.31231689 C136.64522156 19.91559814 136.69420593 20.51887939 136.74467468 21.14044189 C137.470578 20.81245605 138.19648132 20.48447021 138.94438171 20.14654541 C142.24959069 18.65806674 145.55953512 17.18042122 148.86967468 15.70294189 C150.01178406 15.18667236 151.15389343 14.67040283 152.33061218 14.13848877 C153.43920593 13.64542236 154.54779968 13.15235596 155.68998718 12.64434814 C156.70592957 12.18874512 157.72187195 11.73314209 158.76860046 11.26373291 C161.8092618 10.1160641 164.51092421 9.44765102 167.74467468 9.14044189 C171.27373535 10.74456038 172.57240376 11.88203551 174.74467468 15.14044189 C175.0047369 17.18229485 175.0047369 17.18229485 175.01882935 19.56765747 C175.02880447 20.4732843 175.0387796 21.37891113 175.04905701 22.3119812 C175.04972168 23.30321991 175.05038635 24.29445862 175.05107117 25.31573486 C175.05939468 26.3615271 175.0677182 27.40731934 175.07629395 28.48480225 C175.10044015 31.95078221 175.10917162 35.41657417 175.11576843 38.88262939 C175.12473097 41.28775083 175.13385274 43.69287169 175.14312744 46.09799194 C175.15963238 51.14356849 175.16732035 56.18907856 175.17021179 61.23468018 C175.17559822 67.70367582 175.21328347 74.17204781 175.25895596 80.64086723 C175.28868053 85.60967294 175.29593435 90.57832761 175.29693794 95.54721451 C175.30114907 97.93228132 175.31361886 100.31734822 175.33445549 102.70232773 C175.36127419 106.03747327 175.35657188 109.37116199 175.34403992 112.70635986 C175.36629135 114.18714523 175.36629135 114.18714523 175.38899231 115.69784546 C175.33965159 120.30294554 175.23266031 122.47020253 172.45697021 126.28256226 C169.23122227 128.4921487 167.2110478 128.55743195 163.39360046 127.88702393 C157.92430483 126.3455395 152.82908714 123.95686681 147.68217468 121.57794189 C146.53039734 121.05780518 145.37862 120.53766846 144.19194031 120.00177002 C141.37086203 118.72584665 138.55557702 117.43859089 135.74467468 116.14044189 C135.76425232 116.74589844 135.78382996 117.35135498 135.80400085 117.97515869 C135.82684143 119.17652466 135.82684143 119.17652466 135.85014343 120.40216064 C135.86972107 121.19324219 135.88929871 121.98432373 135.9094696 122.79937744 C135.5550566 127.8341423 132.82671899 131.13757156 129.18217468 134.51544189 C125.51929582 136.95736114 122.75684578 137.26835861 118.45774841 137.28761292 C116.81335533 137.29834587 116.81335533 137.29834587 115.13574219 137.30929565 C113.33099678 137.31332901 113.33099678 137.31332901 111.48979187 137.31744385 C110.2228801 137.32401505 108.95596832 137.33058624 107.65066528 137.33735657 C103.44763959 137.35837915 99.24461362 137.36875775 95.04154968 137.37872314 C93.5932895 137.38277147 92.14502951 137.38688842 90.69676971 137.39107323 C83.8917551 137.41012151 77.0867513 137.42435289 70.28171515 137.4326852 C62.43315761 137.44245451 54.58488232 137.46876728 46.73642421 137.50918609 C40.66581383 137.53937347 34.59528423 137.55415657 28.52460027 137.55746621 C24.90085779 137.55981387 21.27741698 137.56873663 17.65375519 137.59392738 C13.60803544 137.62159798 9.56294405 137.61736902 5.51713562 137.6104126 C3.7245356 137.62962769 3.7245356 137.62962769 1.89572144 137.64923096 C-4.72277726 137.60773576 -8.8999175 137.14415313 -14.25532532 133.14044189 C-18.02945601 129.06835351 -19.37386433 126.04047666 -19.40249634 120.53686523 C-19.40965164 119.59205795 -19.41680695 118.64725067 -19.42417908 117.67381287 C-19.42686798 116.63896255 -19.42955688 115.60411224 -19.43232727 114.53790283 C-19.43889847 113.44655533 -19.44546967 112.35520782 -19.45223999 111.23078918 C-19.47198208 107.61213108 -19.48363752 103.9935145 -19.49360657 100.37481689 C-19.49768209 99.13962563 -19.50175762 97.90443436 -19.50595665 96.63181305 C-19.52466934 90.76866054 -19.53923429 84.90552436 -19.54756862 79.04234767 C-19.55733525 72.2838593 -19.58364166 65.52569895 -19.62406951 58.76732612 C-19.65792097 52.9063218 -19.66971796 47.04542709 -19.67377281 41.1843338 C-19.67864526 38.69486517 -19.69027786 36.2054002 -19.70881081 33.71599579 C-19.73314632 30.23058444 -19.73224692 26.74602931 -19.72529602 23.26055908 C-19.73810608 22.23380569 -19.75091614 21.20705231 -19.76411438 20.14918518 C-19.71894673 13.93010123 -18.95283225 10.20053771 -15.25532532 5.14044189 C-10.15467012 1.10242319 -6.37458734 0.02052718 0 0 Z M-3.25532532 17.14044189 C-3.27595032 34.11481689 -3.29657532 51.08919189 -3.31782532 68.57794189 C-3.32692932 73.94616211 -3.33603333 79.31438232 -3.34541321 84.84527588 C-3.34875675 89.63928953 -3.34875675 89.63928953 -3.35076904 94.43330383 C-3.35230897 96.575762 -3.35583487 98.71821927 -3.36090088 100.860672 C-3.36817539 104.09774288 -3.36923284 107.3347606 -3.36885071 110.57183838 C-3.37244882 111.5331816 -3.37604692 112.49452482 -3.37975407 113.48499966 C-3.37837657 114.35121976 -3.37699907 115.21743986 -3.37557983 116.10990906 C-3.37650163 116.86854468 -3.37742342 117.62718031 -3.37837315 118.40880489 C-3.4432087 120.17096138 -3.4432087 120.17096138 -2.25532532 121.14044189 C-0.68877073 121.23852214 0.88220621 121.26676066 2.451828 121.26742554 C3.97889122 121.27165527 3.97889122 121.27165527 5.5368042 121.27597046 C6.66307724 121.27394623 7.78935028 121.271922 8.94975281 121.26983643 C10.71783546 121.2724649 10.71783546 121.2724649 12.52163696 121.27514648 C15.76329076 121.27880457 19.00490402 121.27793163 22.24655724 121.2747674 C25.63203901 121.27224334 29.017518 121.27458146 32.40299988 121.27615356 C38.08932484 121.27797513 43.77563684 121.27556931 49.46195984 121.27081299 C56.04495486 121.26537039 62.62791891 121.26713306 69.21091318 121.27263939 C74.85336781 121.27717091 80.49581309 121.27782088 86.13826895 121.27520072 C89.51245221 121.27363816 92.88662089 121.27344362 96.26080322 121.27673721 C100.02042264 121.27926201 103.77998166 121.27542557 107.53959656 121.26983643 C109.22900612 121.27287277 109.22900612 121.27287277 110.95254517 121.27597046 C111.97058731 121.27315063 112.98862946 121.27033081 114.03752136 121.26742554 C115.37263386 121.26686 115.37263386 121.26686 116.73471832 121.26628304 C118.7425769 121.36305311 118.7425769 121.36305311 119.74467468 120.14044189 C119.83994505 118.79971373 119.86656238 117.45401686 119.8649292 116.10990906 C119.8663067 115.24368896 119.86768419 114.37746885 119.86910343 113.48499966 C119.86550532 112.52365644 119.86190722 111.56231321 119.85820007 110.57183838 C119.85832061 109.55076272 119.85844114 108.52968706 119.85856533 107.47766972 C119.85781589 104.15560326 119.85018621 100.83359213 119.84233093 97.51153564 C119.84086161 95.46730578 119.83984084 93.42307553 119.83927917 91.37884521 C119.83402515 83.77853839 119.82006408 76.17823961 119.80717468 68.57794189 C119.78654968 51.60356689 119.76592468 34.62919189 119.74467468 17.14044189 C79.15467468 17.14044189 38.56467468 17.14044189 -3.25532532 17.14044189 Z " fill="#0E78F9" transform="translate(116.25532531738281,132.85955810546875)"/>
<path d="M0 0 C5.80696949 1.34115584 10.97301795 4.82739651 16.0703125 7.78515625 C17.18092041 8.42050293 18.29152832 9.05584961 19.43579102 9.71044922 C22.61316232 11.53519809 25.78024517 13.37667281 28.9453125 15.22265625 C29.73631348 15.67785645 30.52731445 16.13305664 31.34228516 16.60205078 C42.50494771 23.03400923 42.50494771 23.03400923 43.9453125 27.22265625 C43.8828125 30.22265625 43.8828125 30.22265625 42.9453125 33.22265625 C39.59632985 36.23040069 35.98324479 38.48819404 32.0859375 40.71875 C30.96960938 41.36005859 29.85328125 42.00136719 28.703125 42.66210938 C27.53388168 43.3281733 26.36461069 43.99418866 25.1953125 44.66015625 C24.05320313 45.31564453 22.91109375 45.97113281 21.734375 46.64648438 C18.47599815 48.51349686 15.21133094 50.36905388 11.9453125 52.22265625 C11.04780273 52.73892578 10.15029297 53.25519531 9.22558594 53.78710938 C8.4318457 54.23892578 7.63810547 54.69074219 6.8203125 55.15625 C5.80324219 55.73910767 5.80324219 55.73910767 4.765625 56.33374023 C1.91982712 57.72343311 0.02321577 57.92217972 -3.0546875 57.22265625 C-5.93193419 55.16954018 -7.77791593 53.53711477 -8.52520752 49.98803711 C-8.71744655 47.1901646 -8.74751994 44.43330235 -8.71875 41.62890625 C-8.72353363 40.60462524 -8.72831726 39.58034424 -8.73324585 38.52502441 C-8.73664264 36.36318421 -8.72745578 34.2012925 -8.70654297 32.03955078 C-8.67977557 28.73353365 -8.70629967 25.43091172 -8.73828125 22.125 C-8.73497711 20.02212793 -8.72857081 17.91925798 -8.71875 15.81640625 C-8.72887115 14.82983032 -8.73899231 13.84325439 -8.74942017 12.82678223 C-8.66957886 8.14364339 -8.57435903 5.91866418 -5.70410156 2.07446289 C-3.0546875 0.22265625 -3.0546875 0.22265625 0 0 Z M7.9453125 23.22265625 C7.9453125 26.85265625 7.9453125 30.48265625 7.9453125 34.22265625 C12.37621721 33.01422769 14.92644006 31.7059706 17.9453125 28.22265625 C14.6453125 26.57265625 11.3453125 24.92265625 7.9453125 23.22265625 Z " fill="#57A4FF" transform="translate(163.0546875,172.77734375)"/>
<path d="M0 0 C0.66 0 1.32 0 2 0 C2 25.41 2 50.82 2 77 C-7 74 -7 74 -21 67 C-21 48.19 -21 29.38 -21 10 C-14.4 7.03 -7.8 4.06 -1 1 C-0.67 0.67 -0.34 0.34 0 0 Z " fill="#99C8FF" transform="translate(273,163)"/>
</svg>
